<?xml version="1.0" encoding="utf-8"?>
<!-- Generator: Adobe Illustrator 23.0.0, SVG Export Plug-In . SVG Version: 6.00 Build 0)  -->
<svg version="1.1" id="Capa_1" xmlns="http://www.w3.org/2000/svg" xmlns:xlink="http://www.w3.org/1999/xlink" x="0px" y="0px"
	 viewBox="0 0 128 64" style="enable-background:new 0 0 128 64;" xml:space="preserve">
<style type="text/css">
	.st0{fill:#FFFFFF;stroke:#1D1D1B;stroke-width:0.25;stroke-miterlimit:10;}
	.st1{fill-rule:evenodd;clip-rule:evenodd;}
	.st2{fill-rule:evenodd;clip-rule:evenodd;fill:#BCCEE8;}
	.st3{clip-path:url(#SVGID_2_);}
	.st4{fill-rule:evenodd;clip-rule:evenodd;fill:none;}
	.st5{fill-rule:evenodd;clip-rule:evenodd;fill:#FFFFFF;}
	.st6{clip-path:url(#SVGID_4_);}
	.st7{clip-path:url(#SVGID_6_);}
	.st8{clip-path:url(#SVGID_8_);}
	.st9{clip-path:url(#SVGID_10_);}
	.st10{clip-path:url(#SVGID_12_);}
	.st11{clip-path:url(#SVGID_14_);}
	.st12{clip-path:url(#SVGID_16_);}
	.st13{clip-path:url(#SVGID_18_);}
	.st14{clip-path:url(#SVGID_20_);}
	.st15{clip-path:url(#SVGID_22_);}
	.st16{clip-path:url(#SVGID_24_);}
	.st17{clip-path:url(#SVGID_26_);}
</style>
<g>
	<g>
		<g>
			<rect x="104.8" y="10" transform="matrix(0.7069 -0.7073 0.7073 0.7069 23.2877 77.9167)" width="1.8" height="1.8"/>
		</g>
		<path class="st0" d="M106.3,10.9c0-1-0.8-1.9-1.9-1.9c-1,0-1.9,0.8-1.9,1.9c0,0.2,0,0.5,0.1,0.7c-0.1,0-0.2,0-0.3,0
			c-0.9,0-1.6,0.4-2.1,1l0,0l-1.7,1.7l1.7,1.7l0,0c0.5,0.6,1.3,1,2.1,1c1.5,0,2.8-1.2,2.8-2.8v-1.7
			C105.8,12.3,106.3,11.6,106.3,10.9z"/>
		<g>
			<path d="M105.4,10.2c0,0.2-0.2,0.4-0.4,0.4c-0.2,0-0.4-0.2-0.4-0.4c0-0.2,0.2-0.4,0.4-0.4C105.2,9.8,105.4,10,105.4,10.2"/>
		</g>
		<g>
			<rect x="102.3" y="17" width="0.4" height="1.3"/>
		</g>
	</g>
	<g>
		<g>
			<g>
				<path class="st1" d="M26.1,54.2c0,0.7-0.6,1.3-1.3,1.3h-22c-0.7,0-1-0.5-0.7-1.1l2.6-5.2c0.3-0.6,0.3-1.6,0-2.2L2.1,42
					c-0.3-0.6,0-1.1,0.7-1.1h22c0.7,0,1.3,0.6,1.3,1.3V54.2z"/>
			</g>
		</g>
		<g>
			<g>
				<path class="st1" d="M101.9,54.2c0,0.7,0.6,1.3,1.3,1.3h22c0.7,0,1-0.5,0.7-1.1l-2.6-5.2c-0.3-0.6-0.3-1.6,0-2.2l2.5-4.8
					c0.3-0.6,0-1.1-0.7-1.1h-22c-0.7,0-1.3,0.6-1.3,1.3V54.2z"/>
			</g>
		</g>
		<g>
			<g>
				<path class="st2" d="M115.4,48.9c0,0.7-0.6,1.3-1.3,1.3H11.8c-0.7,0-1.3-0.6-1.3-1.3V37c0-0.7,0.6-1.3,1.3-1.3h102.3
					c0.7,0,1.3,0.6,1.3,1.3V48.9z"/>
			</g>
		</g>
		<g>
			<g>
				<defs>
					<path id="SVGID_1_" d="M115.4,49.2c0,0.7-0.6,1.3-1.3,1.3H11.8c-0.7,0-1.3-0.6-1.3-1.3v-12c0-0.7,0.6-1.3,1.3-1.3h102.3
						c0.7,0,1.3,0.6,1.3,1.3V49.2z"/>
				</defs>
				<clipPath id="SVGID_2_">
					<use xlink:href="#SVGID_1_"  style="overflow:visible;"/>
				</clipPath>
				<g class="st3">
					<g>
						<rect x="110.1" y="35.8" class="st4" width="9.7" height="9.7"/>
					</g>
					<g>
						<rect x="110.1" y="35.8" class="st5" width="9.7" height="9.7"/>
					</g>
					<g>
						<rect x="110.1" y="35.8" width="4.8" height="4.8"/>
					</g>
					<g>
						<rect x="115" y="40.7" width="4.8" height="4.8"/>
					</g>
				</g>
				<g class="st3">
					<g>
						<rect x="110.1" y="45.5" class="st4" width="9.7" height="9.7"/>
					</g>
					<g>
						<rect x="110.1" y="45.5" class="st5" width="9.7" height="9.7"/>
					</g>
					<g>
						<rect x="110.1" y="45.5" width="4.8" height="4.8"/>
					</g>
					<g>
						<rect x="115" y="50.4" width="4.8" height="4.8"/>
					</g>
				</g>
				<g class="st3">
					<g>
						<rect x="100.4" y="35.8" class="st4" width="9.7" height="9.7"/>
					</g>
					<g>
						<rect x="100.4" y="35.8" class="st5" width="9.7" height="9.7"/>
					</g>
					<g>
						<rect x="100.4" y="35.8" width="4.8" height="4.8"/>
					</g>
					<g>
						<rect x="105.3" y="40.7" width="4.8" height="4.8"/>
					</g>
				</g>
				<g class="st3">
					<g>
						<rect x="100.4" y="45.5" class="st4" width="9.7" height="9.7"/>
					</g>
					<g>
						<rect x="100.4" y="45.5" class="st5" width="9.7" height="9.7"/>
					</g>
					<g>
						<rect x="100.4" y="45.5" width="4.8" height="4.8"/>
					</g>
					<g>
						<rect x="105.3" y="50.4" width="4.8" height="4.8"/>
					</g>
				</g>
				<g class="st3">
					<g>
						<rect x="90.7" y="35.8" class="st4" width="9.7" height="9.7"/>
					</g>
					<g>
						<rect x="90.7" y="35.8" class="st5" width="9.7" height="9.7"/>
					</g>
					<g>
						<rect x="90.7" y="35.8" width="4.8" height="4.8"/>
					</g>
					<g>
						<rect x="95.6" y="40.7" width="4.8" height="4.8"/>
					</g>
				</g>
				<g class="st3">
					<g>
						<rect x="90.7" y="45.5" class="st4" width="9.7" height="9.7"/>
					</g>
					<g>
						<rect x="90.7" y="45.5" class="st5" width="9.7" height="9.7"/>
					</g>
					<g>
						<rect x="90.7" y="45.5" width="4.8" height="4.8"/>
					</g>
					<g>
						<rect x="95.6" y="50.4" width="4.8" height="4.8"/>
					</g>
				</g>
				<g class="st3">
					<g>
						<rect x="81" y="35.8" class="st4" width="9.7" height="9.7"/>
					</g>
					<g>
						<rect x="81" y="35.8" class="st5" width="9.7" height="9.7"/>
					</g>
					<g>
						<rect x="81" y="35.8" width="4.8" height="4.8"/>
					</g>
					<g>
						<rect x="85.9" y="40.7" width="4.8" height="4.8"/>
					</g>
				</g>
				<g class="st3">
					<g>
						<rect x="81" y="45.5" class="st4" width="9.7" height="9.7"/>
					</g>
					<g>
						<rect x="81" y="45.5" class="st5" width="9.7" height="9.7"/>
					</g>
					<g>
						<rect x="81" y="45.5" width="4.8" height="4.8"/>
					</g>
					<g>
						<rect x="85.9" y="50.4" width="4.8" height="4.8"/>
					</g>
				</g>
				<g class="st3">
					<g>
						<rect x="71.3" y="35.8" class="st4" width="9.7" height="9.7"/>
					</g>
					<g>
						<rect x="71.3" y="35.8" class="st5" width="9.7" height="9.7"/>
					</g>
					<g>
						<rect x="71.3" y="35.8" width="4.8" height="4.8"/>
					</g>
					<g>
						<rect x="76.2" y="40.7" width="4.8" height="4.8"/>
					</g>
				</g>
				<g class="st3">
					<g>
						<rect x="71.3" y="45.5" class="st4" width="9.7" height="9.7"/>
					</g>
					<g>
						<rect x="71.3" y="45.5" class="st5" width="9.7" height="9.7"/>
					</g>
					<g>
						<rect x="71.3" y="45.5" width="4.8" height="4.8"/>
					</g>
					<g>
						<rect x="76.2" y="50.4" width="4.8" height="4.8"/>
					</g>
				</g>
				<g class="st3">
					<g>
						<rect x="61.6" y="35.8" class="st4" width="9.7" height="9.7"/>
					</g>
					<g>
						<rect x="61.6" y="35.8" class="st5" width="9.7" height="9.7"/>
					</g>
					<g>
						<rect x="61.6" y="35.8" width="4.8" height="4.8"/>
					</g>
					<g>
						<rect x="66.5" y="40.7" width="4.8" height="4.8"/>
					</g>
				</g>
				<g class="st3">
					<g>
						<rect x="61.6" y="45.5" class="st4" width="9.7" height="9.7"/>
					</g>
					<g>
						<rect x="61.6" y="45.5" class="st5" width="9.7" height="9.7"/>
					</g>
					<g>
						<rect x="61.6" y="45.5" width="4.8" height="4.8"/>
					</g>
					<g>
						<rect x="66.5" y="50.4" width="4.8" height="4.8"/>
					</g>
				</g>
				<g class="st3">
					<g>
						<defs>
							<rect id="SVGID_3_" x="51.9" y="35.8" width="9.7" height="9.7"/>
						</defs>
						<clipPath id="SVGID_4_">
							<use xlink:href="#SVGID_3_"  style="overflow:visible;"/>
						</clipPath>
						<g class="st6">
							<rect x="51.9" y="35.8" class="st5" width="9.7" height="9.7"/>
						</g>
						<g class="st6">
							<rect x="51.9" y="35.8" width="4.8" height="4.8"/>
						</g>
						<g class="st6">
							<rect x="56.8" y="40.7" width="4.8" height="4.8"/>
						</g>
					</g>
				</g>
				<g class="st3">
					<g>
						<defs>
							<rect id="SVGID_5_" x="51.9" y="45.5" width="9.7" height="9.7"/>
						</defs>
						<clipPath id="SVGID_6_">
							<use xlink:href="#SVGID_5_"  style="overflow:visible;"/>
						</clipPath>
						<g class="st7">
							<rect x="51.9" y="45.5" class="st5" width="9.7" height="9.7"/>
						</g>
						<g class="st7">
							<rect x="51.9" y="45.5" width="4.8" height="4.8"/>
						</g>
						<g class="st7">
							<rect x="56.8" y="50.4" width="4.8" height="4.8"/>
						</g>
					</g>
				</g>
				<g class="st3">
					<g>
						<defs>
							<rect id="SVGID_7_" x="42.3" y="35.8" width="9.7" height="9.7"/>
						</defs>
						<clipPath id="SVGID_8_">
							<use xlink:href="#SVGID_7_"  style="overflow:visible;"/>
						</clipPath>
						<g class="st8">
							<rect x="42.3" y="35.8" class="st5" width="9.7" height="9.7"/>
						</g>
						<g class="st8">
							<rect x="42.3" y="35.8" width="4.8" height="4.8"/>
						</g>
						<g class="st8">
							<rect x="47.1" y="40.7" width="4.8" height="4.8"/>
						</g>
					</g>
				</g>
				<g class="st3">
					<g>
						<defs>
							<rect id="SVGID_9_" x="42.3" y="45.5" width="9.7" height="9.7"/>
						</defs>
						<clipPath id="SVGID_10_">
							<use xlink:href="#SVGID_9_"  style="overflow:visible;"/>
						</clipPath>
						<g class="st9">
							<rect x="42.3" y="45.5" class="st5" width="9.7" height="9.7"/>
						</g>
						<g class="st9">
							<rect x="42.3" y="45.5" width="4.8" height="4.8"/>
						</g>
						<g class="st9">
							<rect x="47.1" y="50.4" width="4.8" height="4.8"/>
						</g>
					</g>
				</g>
				<g class="st3">
					<g>
						<defs>
							<rect id="SVGID_11_" x="32.6" y="35.8" width="9.7" height="9.7"/>
						</defs>
						<clipPath id="SVGID_12_">
							<use xlink:href="#SVGID_11_"  style="overflow:visible;"/>
						</clipPath>
						<g class="st10">
							<rect x="32.6" y="35.8" class="st5" width="9.7" height="9.7"/>
						</g>
						<g class="st10">
							<rect x="32.6" y="35.8" width="4.8" height="4.8"/>
						</g>
						<g class="st10">
							<rect x="37.4" y="40.7" width="4.8" height="4.8"/>
						</g>
					</g>
				</g>
				<g class="st3">
					<g>
						<defs>
							<rect id="SVGID_13_" x="32.6" y="45.5" width="9.7" height="9.7"/>
						</defs>
						<clipPath id="SVGID_14_">
							<use xlink:href="#SVGID_13_"  style="overflow:visible;"/>
						</clipPath>
						<g class="st11">
							<rect x="32.6" y="45.5" class="st5" width="9.7" height="9.7"/>
						</g>
						<g class="st11">
							<rect x="32.6" y="45.5" width="4.8" height="4.8"/>
						</g>
						<g class="st11">
							<rect x="37.4" y="50.4" width="4.8" height="4.8"/>
						</g>
					</g>
				</g>
				<g class="st3">
					<g>
						<defs>
							<rect id="SVGID_15_" x="22.9" y="35.8" width="9.7" height="9.7"/>
						</defs>
						<clipPath id="SVGID_16_">
							<use xlink:href="#SVGID_15_"  style="overflow:visible;"/>
						</clipPath>
						<g class="st12">
							<rect x="22.9" y="35.8" class="st5" width="9.7" height="9.7"/>
						</g>
						<g class="st12">
							<rect x="22.9" y="35.8" width="4.8" height="4.8"/>
						</g>
						<g class="st12">
							<rect x="27.7" y="40.7" width="4.8" height="4.8"/>
						</g>
					</g>
				</g>
				<g class="st3">
					<g>
						<defs>
							<rect id="SVGID_17_" x="22.9" y="45.5" width="9.7" height="9.7"/>
						</defs>
						<clipPath id="SVGID_18_">
							<use xlink:href="#SVGID_17_"  style="overflow:visible;"/>
						</clipPath>
						<g class="st13">
							<rect x="22.9" y="45.5" class="st5" width="9.7" height="9.7"/>
						</g>
						<g class="st13">
							<rect x="22.9" y="45.5" width="4.8" height="4.8"/>
						</g>
						<g class="st13">
							<rect x="27.7" y="50.4" width="4.8" height="4.8"/>
						</g>
					</g>
				</g>
				<g class="st3">
					<g>
						<defs>
							<rect id="SVGID_19_" x="13.2" y="35.8" width="9.7" height="9.7"/>
						</defs>
						<clipPath id="SVGID_20_">
							<use xlink:href="#SVGID_19_"  style="overflow:visible;"/>
						</clipPath>
						<g class="st14">
							<rect x="13.2" y="35.8" class="st5" width="9.7" height="9.7"/>
						</g>
						<g class="st14">
							<rect x="13.2" y="35.8" width="4.8" height="4.8"/>
						</g>
						<g class="st14">
							<rect x="18" y="40.7" width="4.8" height="4.8"/>
						</g>
					</g>
				</g>
				<g class="st3">
					<g>
						<defs>
							<rect id="SVGID_21_" x="13.2" y="45.5" width="9.7" height="9.7"/>
						</defs>
						<clipPath id="SVGID_22_">
							<use xlink:href="#SVGID_21_"  style="overflow:visible;"/>
						</clipPath>
						<g class="st15">
							<rect x="13.2" y="45.5" class="st5" width="9.7" height="9.7"/>
						</g>
						<g class="st15">
							<rect x="13.2" y="45.5" width="4.8" height="4.8"/>
						</g>
						<g class="st15">
							<rect x="18" y="50.4" width="4.8" height="4.8"/>
						</g>
					</g>
				</g>
				<g class="st3">
					<g>
						<defs>
							<rect id="SVGID_23_" x="3.5" y="35.8" width="9.7" height="9.7"/>
						</defs>
						<clipPath id="SVGID_24_">
							<use xlink:href="#SVGID_23_"  style="overflow:visible;"/>
						</clipPath>
						<g class="st16">
							<rect x="3.5" y="35.8" class="st5" width="9.7" height="9.7"/>
						</g>
						<g class="st16">
							<rect x="3.5" y="35.8" width="4.8" height="4.8"/>
						</g>
						<g class="st16">
							<rect x="8.3" y="40.7" width="4.8" height="4.8"/>
						</g>
					</g>
				</g>
				<g class="st3">
					<g>
						<defs>
							<rect id="SVGID_25_" x="3.5" y="45.5" width="9.7" height="9.7"/>
						</defs>
						<clipPath id="SVGID_26_">
							<use xlink:href="#SVGID_25_"  style="overflow:visible;"/>
						</clipPath>
						<g class="st17">
							<rect x="3.5" y="45.5" class="st5" width="9.7" height="9.7"/>
						</g>
						<g class="st17">
							<rect x="3.5" y="45.5" width="4.8" height="4.8"/>
						</g>
						<g class="st17">
							<rect x="8.3" y="50.4" width="4.8" height="4.8"/>
						</g>
					</g>
				</g>
			</g>
		</g>
		<g>
			<path d="M114.1,51.1H11.8c-1,0-1.9-0.8-1.9-1.9v-12c0-1,0.8-1.9,1.9-1.9h102.3c1,0,1.9,0.8,1.9,1.9v12
				C116,50.2,115.2,51.1,114.1,51.1z M11.8,36.6c-0.3,0-0.6,0.3-0.6,0.6v12c0,0.3,0.3,0.6,0.6,0.6h102.3c0.3,0,0.6-0.3,0.6-0.6v-12
				c0-0.3-0.3-0.6-0.6-0.6H11.8z"/>
		</g>
		<g>
			<path class="st5" d="M114.6,51.1l-10.8,3.7c0,0-0.4,0.1-0.7-0.2c-0.3-0.3-0.2-0.8-0.2-0.8l0-2.8H114.6z"/>
		</g>
		<g>
			<path class="st5" d="M13.6,51.1l10.8,3.7c0,0,0.4,0.1,0.7-0.2c0.3-0.3,0.2-0.8,0.2-0.8l0-2.8H13.6z"/>
		</g>
	</g>
	<g>
		<g>
			<path d="M103.9,28.9h1.3l3.9-6.6c-0.6-1.4-0.3-3,1.1-4.4l0.9,0.9c-1.1,1.1-1.2,2.4-0.5,3.5l-4.6,7.9h-2V28.9z M103.9,30.5h2.2
				l1-1.8c1.6,1.3,3.1,2,4.4,2c1.9,0,3.1-1.4,3.1-3c0-2.4-2.8-4.1-3.7-5.3c-0.9-1.1-0.8-2.3,0.3-3.4l0.9,0.9
				c-0.6,0.6-0.6,1.1-0.2,1.7c0.7,0.9,3.9,3,3.9,6.1c0,2.1-1.6,4.2-4.3,4.2c-1.2,0-2.7-0.5-4.1-1.4l-0.7,1.2h-2.9V30.5z M107.2,28.5
				l3.5-5.9c0.9,1.2,3.6,2.9,3.6,5.1c0,1.4-1,2.7-2.8,2.7C110.3,30.4,108.8,29.8,107.2,28.5 M110.9,24.6l-2.1,3.5
				c1.1,0.7,1.9,1,2.7,1c1,0,1.5-0.6,1.5-1.4C113,26.7,112,25.6,110.9,24.6"/>
		</g>
		<g>
			<path d="M22.3,20.2h4.6v6.6c0,1.7,0.8,2.3,1.7,2.3c1,0,2-0.5,2.8-1.5V23h-1.8v-1.3h3.1v6.3c-1.1,1.4-2.6,2.3-4.1,2.3
				c-1.5,0-3-0.8-3-3.5v-5.4h-3.4V20.2z M22.3,21.8h3.1v5.1c0,2.9,1.7,3.8,3.3,3.8c1.5,0,3-0.9,4.1-2.2v2h3.4v1.2h-4.6v-0.6
				c-0.9,0.5-1.8,0.8-2.8,0.8c-2,0-4.5-1.3-4.5-5.1V23h-1.8V21.8z M36.2,30.2h-3.1v-8.7h-3.4v-1.2h4.6v8.7h1.8V30.2z"/>
		</g>
		<g>
			<path d="M36.5,12.8h1.9V9.7l1.3-0.5V14h-3.1V12.8z M36.5,14.3h3.1v13.1c0,2.5,1.5,3.3,2.6,3.3c1.7,0,2.8-1.6,2.5-4l1.2-0.2
				c0.5,3.3-1.2,5.5-3.7,5.5c-1.6,0-3.8-1.1-3.9-4.5V15.6h-1.9V14.3z M40,14v-5l1.2-0.5v4.2H45V14H40z M43.3,26.9l1.2-0.2
				c0.3,2.3-0.7,3.7-2.2,3.7c-1,0-2.3-0.6-2.3-3V14.3H45v1.3h-3.8v11.8c0,1.4,0.5,1.7,1.1,1.7C43,29.1,43.5,28.4,43.3,26.9"/>
		</g>
		<g>
			<path d="M46.4,12.8h1.9V9.7l1.3-0.5V14h-3.2V12.8z M46.4,14.3h3.2v13.1c0,2.5,1.5,3.3,2.6,3.3c1.7,0,2.8-1.6,2.5-4l1.2-0.2
				c0.5,3.3-1.2,5.5-3.7,5.5c-1.6,0-3.8-1.1-3.9-4.5V15.6h-1.9V14.3z M49.9,14v-5l1.2-0.5v4.2h3.8V14H49.9z M53.2,26.9l1.2-0.2
				c0.3,2.3-0.7,3.7-2.2,3.7c-1,0-2.3-0.6-2.3-3V14.3h5.1v1.3h-3.8v11.8c0,1.4,0.5,1.7,1.1,1.7C52.9,29.1,53.4,28.4,53.2,26.9"/>
		</g>
		<g>
			<path d="M62.6,20c3.3,0,6,2.7,6,6c0,3.3-2.7,5.9-6,5.9c-3.3,0-5.9-2.7-5.9-5.9C56.7,22.7,59.4,20,62.6,20 M62.6,30.7
				c2.6,0,4.7-2.1,4.7-4.7c0-2.6-2.1-4.7-4.7-4.7c-2.6,0-4.7,2.1-4.7,4.7C57.9,28.6,60.1,30.7,62.6,30.7 M62.6,21.6
				c2.4,0,4.4,1.9,4.4,4.4c0,2.4-2,4.4-4.4,4.4c-2.4,0-4.4-2-4.4-4.4C58.2,23.5,60.2,21.6,62.6,21.6 M62.6,29.1
				c1.8,0,3.2-1.4,3.2-3.2c0-1.8-1.4-3.2-3.2-3.2c-1.7,0-3.2,1.4-3.2,3.2C59.5,27.7,60.9,29.1,62.6,29.1"/>
		</g>
		<g>
			<path d="M77.6,20.4h1.2V23c-0.6-1-2-1.7-3.4-1.7c-2.6,0-4.7,2.1-4.7,4.7c0,2.6,2,4.7,4.9,4.7c1.4,0,2.9-0.5,4-1.5l0.8,1
				c-1.2,1.1-3.1,1.7-4.8,1.7c-3.7,0-6.1-2.7-6.1-5.9c0-3.3,2.7-6,5.9-6C76.2,20,76.9,20.2,77.6,20.4L77.6,20.4z M77.6,25.8v-1.8
				c-0.2-0.6-1.1-1.1-2.1-1.1c-1.7,0-3.2,1.4-3.2,3.2c0,1.8,1.3,3.2,3.3,3.2c1.1,0,2.1-0.4,3-1.1l0.8,1c-1.1,0.9-2.4,1.4-3.8,1.4
				c-2.8,0-4.6-2-4.6-4.4c0-2.5,2-4.4,4.4-4.4c1.6,0,3,0.8,3.4,2.1v2.1H77.6z M79.1,20.4h1.3v5.4h-1.3V20.4z"/>
		</g>
		<g>
			<path d="M93.7,31.7H89v-0.3c-0.9,0.3-1.8,0.5-2.7,0.5c-2.7,0-4.7-1.7-4.7-4.1c0-1.9,1.3-4.2,4.9-4.2c0.7,0,1.6,0.1,2.5,0.3
				c-0.1-0.7-0.7-1-2.1-1c-1.3,0-2.6,0.3-3.6,0.7l-0.4-1.2c1.1-0.4,2.7-0.7,4-0.7c1.9,0,3.4,0.5,3.4,2.4v1.5
				c-1.6-0.5-2.8-0.6-3.8-0.6c-2.7,0-3.7,1.6-3.7,3c0,1.7,1.5,2.9,3.5,2.9c1.4,0,2.9-0.6,4-1.4v1.2h3.4V31.7z M93.7,30.2h-3.1V24
				c0-2.1-1.8-2.7-3.7-2.7c-1.4,0-3,0.4-4.1,0.7l-0.4-1.2c1.2-0.4,3-0.8,4.6-0.8c2.3,0,4.9,0.9,4.9,3.9v4.9h1.8V30.2z M90.3,25.8
				v3.1c-1.1,0.9-2.5,1.5-4,1.5c-1.9,0-3.2-1.1-3.2-2.6c0-1.3,0.8-2.7,3.4-2.7C87.5,25.1,88.7,25.3,90.3,25.8 M89,28.3v-1.6
				c-1.1-0.2-1.9-0.4-2.5-0.4c-1.7,0-2.2,0.6-2.2,1.4c0,0.8,0.7,1.3,2,1.3C87.3,29.1,88.2,28.9,89,28.3"/>
		</g>
		<g>
			<path d="M103.5,24.8v-3.3c-3.1-1-5,1.5-5.8,2.9v-3h-3.4v-1.2H99V21c1.4-1,3.3-1.5,5.8-0.4v4.1H103.5z M94.4,23v-1.3h3.1v8.4h-3.1
				v-1.3h1.8V23H94.4z M94.4,30.5h6.5v1.2h-6.5V30.5z M102,24.8v-2c-1.6,0.1-2.6,1.8-3,2.6v3.5h1.8v1.3h-3.1v-5
				c0.3-1,2.1-4.4,5.5-3.5v3.1H102z"/>
		</g>
		<path d="M23.8,11.9l1.2-0.1c0.3,1.8-0.5,3.3-3,3.3c-1.5,0-3.5-0.4-5.5-0.8c-2-0.4-4-0.8-5.5-0.8c-2.6,0-3.6,1.8-3.3,3.7l-1.2,0.1
			c-0.3-2.5,1-5.1,4.6-5.1c1.7,0,3.8,0.4,5.8,0.8c2,0.4,3.8,0.8,5.3,0.8C23.5,13.9,24,13.2,23.8,11.9z M13.2,28.8h1.8V15.6
			c-1.6-0.3-3-0.5-4.2-0.5c-1.5,0-2,0.7-1.8,2l-1.2,0.1c-0.3-1.9,0.5-3.4,3-3.4c1.5,0,3.4,0.4,5.4,0.8v15.5h-3.1V28.8z M13.2,31.6
			v-1.2h6.4v1.2H13.2z M19.6,30.1h-3.1V14.7c1.9,0.4,3.9,0.7,5.4,0.7c2.7,0,3.6-1.6,3.3-3.7l1.2-0.2c0.3,2.5-1,5.1-4.6,5.1
			c-1.2,0-2.7-0.2-4.2-0.5v12.7h1.8V30.1z"/>
	</g>
</g>
</svg>
